<svg width="27" height="28" viewBox="0 0 27 28" fill="none" xmlns="http://www.w3.org/2000/svg">
<g clip-path="url(#clip0_5927_2704)">
<path d="M23.625 8.49333V5.83333C23.625 4.55 22.6125 3.5 21.375 3.5H5.625C4.37625 3.5 3.375 4.55 3.375 5.83333V22.1667C3.375 23.45 4.37625 24.5 5.625 24.5H21.375C22.6125 24.5 23.625 23.45 23.625 22.1667V19.5067C24.2887 19.0983 24.75 18.3633 24.75 17.5V10.5C24.75 9.63667 24.2887 8.90167 23.625 8.49333ZM22.5 10.5V17.5H14.625V10.5H22.5ZM5.625 22.1667V5.83333H21.375V8.16667H14.625C13.3875 8.16667 12.375 9.21667 12.375 10.5V17.5C12.375 18.7833 13.3875 19.8333 14.625 19.8333H21.375V22.1667H5.625Z" fill="black"/>
<path d="M18 15.75C18.932 15.75 19.6875 14.9665 19.6875 14C19.6875 13.0335 18.932 12.25 18 12.25C17.068 12.25 16.3125 13.0335 16.3125 14C16.3125 14.9665 17.068 15.75 18 15.75Z" fill="black"/>
</g>
<defs>
<clipPath id="clip0_5927_2704">
<rect width="27" height="28" fill="black"/>
</clipPath>
</defs>
</svg>
